<svg width="146" height="32" viewBox="0 0 146 32" fill="none" xmlns="http://www.w3.org/2000/svg">
  <path fill-rule="evenodd" clip-rule="evenodd" d="M0 7.75098V31.3843H10.6513C15.7748 31.3843 18.9432 28.8859 18.9432 24.7332C18.9432 21.931 17.2242 19.6351 14.258 19.0612C16.8197 18.1496 18.0331 16.3602 18.0331 13.7606C18.0331 10.1481 15.3366 7.75098 10.7525 7.75098H0ZM9.77496 17.3056H4.58412V11.6336H9.80867C12.1344 11.6336 13.3816 12.714 13.3816 14.3345C13.3816 16.1577 11.9996 17.3056 9.77496 17.3056ZM10.3143 27.5017H4.58412V21.1544H10.2469C12.8423 21.1544 14.2917 22.4036 14.2917 24.328C14.2917 26.4213 12.7075 27.5017 10.3143 27.5017ZM40.1854 13.6428H44.601V17.5929C45.1066 15.1283 47.0623 13.4402 49.8263 13.4402C50.3319 13.4402 50.8375 13.4739 51.1745 13.5752V17.9643C50.8375 17.9305 50.5004 17.9305 50.0623 17.9305C46.9612 17.9305 44.8032 19.8549 44.8032 23.3999V31.4391H40.1854V13.6428ZM60.2048 13.2376C55.0813 13.2376 51.5084 17.289 51.5084 22.4208C51.5084 27.5864 54.778 31.6041 60.407 31.6041C64.4855 31.6041 67.6202 29.207 68.4292 25.7295H64.2496C63.6766 27.0462 62.5305 28.0591 60.3733 28.0591C57.6768 28.0591 56.0925 26.0671 55.924 23.4337H68.6652V22.3195C68.6652 17.2215 65.7664 13.2376 60.2048 13.2376ZM64.2496 20.2263H56.0588C56.4633 18.0993 57.9464 16.5125 60.2048 16.5125C62.4968 16.5125 63.9462 18.0318 64.2496 20.2263ZM69.9651 26.1009C69.9651 22.6572 72.3583 20.8678 76.9087 20.5302L81.1558 20.1926V19.5511C81.1558 17.7955 80.1783 16.6813 78.1559 16.6813C76.302 16.6813 75.156 17.7279 74.9537 19.0784H70.5718C71.1111 15.6009 74.0099 13.2376 78.1559 13.2376C83.1107 13.2376 85.7399 15.871 85.7399 19.8549V31.4391H81.2906V28.8018C80.6164 30.3211 78.6952 31.6041 76.066 31.6041C72.3583 31.6041 69.9651 29.4433 69.9651 26.1009ZM74.4144 25.9658C74.4144 27.4513 75.4593 28.4642 77.3132 28.4642C79.6727 28.4642 81.1558 26.9787 81.1558 24.4465V23.2649L77.8188 23.535C75.729 23.7038 74.4144 24.3115 74.4144 25.9658ZM101.853 24.3759V13.6428H106.418V23.9955C106.418 26.278 107.179 27.4192 109.652 27.4192C111.744 27.4192 112.885 26.3926 112.885 23.9955V13.6428H117.45V31.4461H112.885V28.9409C112.11 30.764 110.725 31.4136 108.13 31.4136C103.984 31.4136 101.853 28.6974 101.853 24.3759ZM124.057 13.6428H119.608V31.4461H124.225V21.0366C124.225 18.6395 125.371 17.289 127.428 17.289C129.517 17.289 130.495 18.707 130.495 20.9353V31.4461H135.113V21.0366C135.113 18.6395 136.259 17.289 138.315 17.289C140.371 17.289 141.382 18.707 141.382 20.9353V31.4461H146V20.2263C146 16.0061 143.944 13.2376 139.832 13.2376C137 13.2376 135.315 14.4868 134.304 16.3099C133.427 14.4193 131.742 13.2376 129.046 13.2376C126.383 13.2376 124.832 14.5206 124.057 16.4112V13.6428Z" fill="#FDFDFD"/>
  <path d="M92.8022 7.77547H88.0447V31.4395H92.8022V7.77547Z" fill="#FDFDFD"/>
  <path d="M95.1543 13.5757H97.3699H99.5855V31.5337H95.1543V13.5757Z" fill="#FDFDFD"/>
  <path d="M97.3692 0.662598L98.0288 6.73518C98.1707 8.04162 99.2025 9.07337 100.509 9.21527L106.581 9.87485L100.509 10.5344C99.2025 10.6763 98.1707 11.7081 98.0288 13.0145L97.3692 19.0871L96.7097 13.0145C96.5678 11.7081 95.536 10.6763 94.2296 10.5344L88.157 9.87485L94.2296 9.21527C95.536 9.07337 96.5678 8.04162 96.7097 6.73518L97.3692 0.662598Z" fill="#FDFDFD"/>
  <path fill-rule="evenodd" clip-rule="evenodd" d="M20.45 22.4152C20.45 27.5132 24.1577 31.5984 29.4497 31.5984C34.7416 31.5984 38.4494 27.5132 38.4494 22.4152C38.4494 17.3171 34.7416 13.2319 29.4497 13.2319C24.1577 13.2319 20.45 17.3171 20.45 22.4152ZM33.899 22.4152C33.899 25.0823 32.281 27.7833 29.4497 27.7833C26.6183 27.7833 25.0004 25.0823 25.0004 22.4152C25.0004 19.748 26.6183 17.0808 29.4497 17.0808C32.281 17.0808 33.899 19.748 33.899 22.4152Z" fill="#FDFDFD"/>
  </svg>
  