<svg width="131" height="156" viewBox="0 0 131 156" fill="none" xmlns="http://www.w3.org/2000/svg">
  <path d="M21.2009 50.8344L9.50325 74.2976L5.79978 73.7888L21.2009 50.8344Z" fill="#01FDC1"/>
  <path d="M32.6826 37.5237L12.8839 75.2823L9.07035 74.1274L32.6826 37.5237Z" fill="#01FDC1"/>
  <path d="M42.0562 28.942L16.3675 77.0381L12.6892 75.1795L42.0562 28.942Z" fill="#01FDC1"/>
  <path d="M49.347 23.2548L20.0387 77.0993L16.7691 75.4472L49.347 23.2548Z" fill="#01FDC1"/>
  <path d="M45.7586 36.202L23.7026 77.6204L20.4329 75.9683L45.7586 36.202Z" fill="#01FDC1"/>
  <path d="M45.8465 42.8519L27.2022 78.4246L23.9326 76.7725L45.8465 42.8519Z" fill="#01FDC1"/>
  <path d="M46.806 48.6508L31.6391 78.9048L27.8537 76.8576L46.806 48.6508Z" fill="#01FDC1"/>
  <path d="M54.4367 42.8034L35.0144 79.9295L32.203 77.5642L54.4367 42.8034Z" fill="#01FDC1"/>
  <path d="M54.5763 49.1782L38.6601 80.1007L35.9053 78.0198L54.5763 49.1782Z" fill="#01FDC1"/>
  <path d="M49.435 65.0368L42.4429 80.8786L39.1082 78.9117L49.435 65.0368Z" fill="#01FDC1"/>
  <path d="M51.0013 69.3885L46.1707 81.2926L42.901 79.6405L51.0013 69.3885Z" fill="#01FDC1"/>
  <path d="M61.578 58.5164L49.8745 82.65L45.9918 80.6882L61.578 58.5164Z" fill="#01FDC1"/>
  <path d="M68.6239 53.7247L53.8062 83.6237L49.5148 81.4554L68.6239 53.7247Z" fill="#01FDC1"/>
  <path d="M75.2721 49.3307L56.9763 84.9142L53.1587 82.9852L75.2721 49.3307Z" fill="#01FDC1"/>
  <path d="M75.0765 56.7008L59.9351 87.6317L55.4393 85.3601L75.0765 56.7008Z" fill="#01FDC1"/>
  <path d="M74.9029 63.7982L62.7825 89.0996L59.1736 87.1219L74.9029 63.7982Z" fill="#01FDC1"/>
  <path d="M75.6491 69.5985L62.4692 96.4363L58.3937 94.3771L75.6491 69.5985Z" fill="#01FDC1"/>
  <path d="M75.8302 76.2502L63.3744 102.145L58.833 99.6824L75.8302 76.2502Z" fill="#01FDC1"/>
  <path d="M82.1436 73.1554L65.1177 105.955L61.6436 104.2L82.1436 73.1554Z" fill="#01FDC1"/>
  <path d="M83.043 78.8683L69.8353 105.126L66.3613 103.371L83.043 78.8683Z" fill="#01FDC1"/>
  <path d="M84.1031 84.3031L73.4475 106.188L70.1778 104.536L84.1031 84.3031Z" fill="#01FDC1"/>
  <path d="M84.3211 90.7357L76.6345 107.533L73.3649 105.881L84.3211 90.7357Z" fill="#01FDC1"/>
  <path d="M85.4168 96.1134L79.7799 109.399L76.3058 107.644L85.4168 96.1134Z" fill="#01FDC1"/>
  <path d="M87.9949 98.9464L82.3284 112.283L78.8544 110.527L87.9949 98.9464Z" fill="#01FDC1"/>
  <path d="M91.9907 98.9029L84.8626 114.539L81.7777 112.98L91.9907 98.9029Z" fill="#01FDC1"/>
  <path d="M95.9166 99.4316L87.9801 116.475L84.8744 114.906L95.9166 99.4316Z" fill="#01FDC1"/>
  <path d="M100.535 98.7727L91.2226 118.175L88.1159 116.605L100.535 98.7727Z" fill="#01FDC1"/>
  <path d="M104.376 99.2231L94.0386 120.246L91.0545 118.738L104.376 99.2231Z" fill="#01FDC1"/>
  <path d="M106.885 101.856L97.4205 121.856L94.0102 120.133L106.885 101.856Z" fill="#01FDC1"/>
  <path d="M108.432 105.72L99.5225 124.77L96.1122 123.047L108.432 105.72Z" fill="#01FDC1"/>
  <path d="M113.122 104.258L104.276 123.199L100.866 121.475L113.122 104.258Z" fill="#01FDC1"/>
  <path d="M118.467 102.093L107.539 124.601L104.128 122.878L118.467 102.093Z" fill="#01FDC1"/>
  <path d="M123.693 99.8596L110.451 126.332L107.04 124.609L123.693 99.8596Z" fill="#01FDC1"/>
  <path d="M124.783 104.737L114.009 126.982L110.598 125.259L124.783 104.737Z" fill="#01FDC1"/>
  <path d="M124.109 112.378L117.788 126.992L114.378 125.269L124.109 112.378Z" fill="#01FDC1"/>
  <path d="M123.294 119.443L121.107 126.933L117.734 125.228L123.294 119.443Z" fill="#01FDC1"/>
  <mask id="mask0_546_5215" style="mask-type:alpha" maskUnits="userSpaceOnUse" x="2" y="-15" width="134" height="114">
  <path d="M2.20776 -14.0866C2.20776 -14.0866 28.9219 -5.53504 49.9963 14.6771C66.643 31.2105 69.2907 35.1371 78.4202 38.3448C87.5497 41.5526 107.949 43.753 108.431 52.3989C108.914 61.0448 102.41 58.9121 107.265 65.615C112.12 72.3179 105.128 70.9612 107.558 75.6233C109.988 80.2854 115.423 86.9941 118.336 89.1325C121.122 91.1776 120.177 92.9545 129.606 95.318C129.777 95.3609 135.495 98.2503 135.495 98.2503V-14.6528" fill="#D9D9D9"/>
  </mask>
  <g mask="url(#mask0_546_5215)">
  <path fill-rule="evenodd" clip-rule="evenodd" d="M55.123 19.1104L61.0069 27.7164C61.2272 27.9671 61.4411 28.211 61.6492 28.4483C65.4212 32.7492 67.296 34.8868 71.1714 36.3062C72.0543 36.7699 72.9932 37.074 74.3219 37.5042C75.0311 37.7339 75.8514 37.9995 76.8335 38.3446C77.637 38.6269 78.7351 39.1496 79.9383 39.7223C81.7083 40.5648 83.7056 41.5155 85.3267 41.9684C87.532 42.5844 89.8958 43.1088 92.2392 43.6287C100.308 45.4189 108.137 47.1556 108.43 52.3987C108.649 56.3241 107.428 58.0277 106.484 59.3451C105.348 60.9293 104.613 61.9551 107.264 65.6147C109.994 69.3851 108.977 70.6054 107.996 71.7812C107.234 72.6957 106.493 73.5834 107.557 75.6231C109.532 79.4117 113.491 84.5518 116.469 87.4925C117.875 88.8812 118.635 89.2695 119.726 89.8265C120.282 90.1101 120.923 90.4374 121.779 90.9628C123.522 92.0337 124.589 91.8206 125.241 91.1597C125.558 90.8384 125.719 90.484 125.827 90.0573C126.111 88.9362 126.267 87.9706 126.267 87.9706C126.141 87.859 125.952 87.7237 125.694 87.54C125.225 87.2051 124.53 86.7097 123.59 85.9052C122.682 85.1291 121.797 84.1718 120.828 83.1239C119.233 81.3989 117.411 79.4284 114.889 77.616C113.129 75.4355 113.066 73.5301 113 71.5656C112.926 69.3577 112.85 67.075 110.361 64.2429C110.3 64.1737 110.239 64.1045 110.177 64.0351C109.257 63.001 108.303 61.9274 109.416 60.4895C117.723 46.119 104.021 39.7684 87.8406 38.3446C80.5242 37.7008 74.863 35.1958 67.5548 30.7249C62.4855 26.6696 59.2177 22.7719 55.123 19.1104Z" fill="#0CB6FF"/>
  <path d="M85.9626 32.2426L83.651 39.5969L80.5919 38.0512L85.9626 32.2426Z" fill="#0CB6FF"/>
  <path d="M88.4982 22.6298L81.2499 38.2434L78.3706 36.7885L88.4982 22.6298Z" fill="#0CB6FF"/>
  <path d="M91.8132 11.531L78.5249 38.0352L75.1573 36.3336L91.8132 11.531Z" fill="#0CB6FF"/>
  <path d="M94.8411 0.871576L76.3959 36.1016L73.1277 34.4503L94.8411 0.871576Z" fill="#0CB6FF"/>
  <path d="M83.6292 14.7077L73.6027 34.3985L71.339 33.2547L83.6292 14.7077Z" fill="#0CB6FF"/>
  <path d="M77.0643 21.6356L71.4806 33.4364L69.4672 32.4191L77.0643 21.6356Z" fill="#0CB6FF"/>
  <path d="M72.5958 25.0202L69.8253 32.3815L67.4687 31.1908L72.5958 25.0202Z" fill="#0CB6FF"/>
  <path d="M69.5432 26.1995L67.8806 31.1723L65.966 30.2049L69.5432 26.1995Z" fill="#0CB6FF"/>
  <path d="M67.3394 26.6909L66.3145 29.8897L65.014 29.2326L67.3394 26.6909Z" fill="#0CB6FF"/>
  <path d="M68.324 22.5441L65.3836 29.1459L63.974 28.4337L68.324 22.5441Z" fill="#0CB6FF"/>
  <path d="M69.8775 17.0071L64.4591 28.042L62.8808 27.2445L69.8775 17.0071Z" fill="#0CB6FF"/>
  <path d="M70.6116 12.6921L63.2687 27.0135L61.7003 26.221L70.6116 12.6921Z" fill="#0CB6FF"/>
  <path d="M70.3721 10.0308L62.3336 26.2806L60.1012 25.1526L70.3721 10.0308Z" fill="#0CB6FF"/>
  <path d="M67.2472 11.7089L60.738 25.1149L58.707 24.0887L67.2472 11.7089Z" fill="#0CB6FF"/>
  <path d="M64.0546 13.4451L59.3283 23.9801L57.1317 22.8702L64.0546 13.4451Z" fill="#0CB6FF"/>
  <path d="M60.485 15.4934L58.1977 22.1348L56.1026 20.5656L60.485 15.4934Z" fill="#0CB6FF"/>
  <path d="M57.7235 17.0996L56.5818 20.9187L55.125 19.1076L57.7235 17.0996Z" fill="#0CB6FF"/>
  <path d="M89.7472 31.3962L85.8749 42.393L81.9429 40.4063L89.7472 31.3962Z" fill="#0CB6FF"/>
  <path d="M95.5511 28.0867L88.9903 44.7282L84.1225 42.2686L95.5511 28.0867Z" fill="#0CB6FF"/>
  <path d="M100.978 26.2583L92.819 46.0036L87.6218 43.3776L100.978 26.2583Z" fill="#0CB6FF"/>
  <path d="M105.84 25.7634L96.2562 48.3981L90.6545 45.5676L105.84 25.7634Z" fill="#0CB6FF"/>
  <path d="M108.198 28.2579L98.5045 51.8481L92.2113 48.6683L108.198 28.2579Z" fill="#0CB6FF"/>
  <path d="M113.088 26.657L102.385 51.1005L96.8815 48.3197L113.088 26.657Z" fill="#0CB6FF"/>
  <path d="M117.645 25.9077L104.245 54.7564L98.9363 52.0739L117.645 25.9077Z" fill="#0CB6FF"/>
  <path d="M122.539 24.3681L105.162 59.5983L100.244 57.113L122.539 24.3681Z" fill="#0CB6FF"/>
  <path d="M129.73 18.8847L107.173 63.4229L101.864 60.7403L129.73 18.8847Z" fill="#0CB6FF"/>
  <path d="M130.135 24.9479L96.2919 89.345L90.5145 86.4258L130.135 24.9479Z" fill="#0CB6FF"/>
  <path d="M130.064 31.5875L107.601 75.2131L102.97 72.8731L130.064 31.5875Z" fill="#0CB6FF"/>
  <path d="M127.978 42.4848L103.808 89.6303L98.6404 87.019L127.978 42.4848Z" fill="#0CB6FF"/>
  <path d="M125.449 53.9395L103.818 98.3693L97.1776 95.0139L125.449 53.9395Z" fill="#0CB6FF"/>
  <path d="M123.537 64.5079L114.125 86.226L109.085 83.679L123.537 64.5079Z" fill="#0CB6FF"/>
  <path d="M123.659 70.7443L116.227 90.1888L110.178 87.1327L123.659 70.7443Z" fill="#0CB6FF"/>
  <path d="M128.397 69.236L120.709 86.7295L116.814 84.7613L128.397 69.236Z" fill="#0CB6FF"/>
  <path d="M127.236 78.0406L124.075 87.5431L120.391 85.6815L127.236 78.0406Z" fill="#0CB6FF"/>
  <path d="M127.021 84.4137L125.657 90.4869L122.096 88.9906L127.021 84.4137Z" fill="#0CB6FF"/>
  </g>
  <path fill-rule="evenodd" clip-rule="evenodd" d="M6.03076 73.7803C6.03076 73.7803 9.1146 74.7716 10.726 75.3122C13.4086 76.2121 16.0356 77.0934 17.688 77.4479L17.6881 77.448C34.5037 81.0564 46.5244 83.6359 53.4214 88.7378C57.4192 91.6951 52.7234 92.825 48.1172 93.9335C43.1986 95.1171 38.3822 96.2761 44.362 99.6091C47.2483 101.218 51.2616 102.57 55.4683 103.987C61.3295 105.961 67.5661 108.061 71.6535 111.16C73.3113 112.417 73.6062 113.173 73.8778 113.87C74.0628 114.345 74.237 114.792 74.8243 115.35C77.1822 117.591 82.528 119.496 88.2163 121.523L88.2165 121.523C90.3183 122.272 92.4668 123.038 94.5286 123.843C99.0976 125.628 103.757 126.242 108.364 126.85L108.364 126.85C108.817 126.91 109.252 126.966 109.676 127.02C111.783 127.29 113.603 127.523 115.798 128.011C118.514 128.72 120.719 129.232 121.507 125.688C120.077 125.073 119.888 125.086 119.405 125.119C119.088 125.14 118.646 125.17 117.65 125.038L117.65 125.038C113.043 124.431 108.384 123.816 103.814 122.031C101.753 121.226 99.6042 120.46 97.5024 119.711L97.5021 119.711C91.8138 117.684 86.4681 115.779 84.1102 113.538C83.5229 112.98 83.3487 112.533 83.1637 112.058C82.8922 111.361 82.5972 110.605 80.9394 109.348C76.852 106.249 70.6154 104.149 64.7542 102.175C62.3373 101.361 62.5079 101.121 62.7469 100.785C62.9239 100.537 63.1385 100.235 62.3676 99.6091C61.3735 98.8014 61.8328 98.1827 62.375 97.4522C62.8211 96.8511 63.3235 96.1744 63.119 95.2543C62.9587 94.5332 63.2521 93.4858 63.5778 92.3231C64.1726 90.1994 64.8753 87.6908 63.119 86.0808C55.7767 79.3504 42.505 77.9559 27.4025 76.3691C20.5539 75.6495 6.1095 73.5762 6.1095 73.5762L6.03076 73.7803Z" fill="#01FDC1"/>
  <path fill-rule="evenodd" clip-rule="evenodd" d="M0.0458984 134.777V155.813H9.52661C14.087 155.813 16.9072 153.589 16.9072 149.893C16.9072 147.398 15.3771 145.355 12.7369 144.844C15.017 144.033 16.0971 142.44 16.0971 140.126C16.0971 136.91 13.6969 134.777 9.61662 134.777H0.0458984ZM8.74655 143.281H4.1262V138.233H8.77656C10.8467 138.233 11.9568 139.194 11.9568 140.637C11.9568 142.26 10.7267 143.281 8.74655 143.281ZM9.22659 152.357H4.1262V146.707H9.16658C11.4768 146.707 12.7669 147.819 12.7669 149.532C12.7669 151.395 11.3568 152.357 9.22659 152.357ZM35.8148 140.021H39.745V143.537C40.1951 141.343 41.9359 139.841 44.3961 139.841C44.8461 139.841 45.2961 139.871 45.5962 139.961V143.868C45.2961 143.838 44.9961 143.838 44.6061 143.838C41.8459 143.838 39.9251 145.551 39.9251 148.706V155.862H35.8148V140.021ZM53.6339 139.66C49.0736 139.66 45.8933 143.267 45.8933 147.834C45.8933 152.432 48.8036 156.008 53.8139 156.008C57.4442 156.008 60.2344 153.875 60.9545 150.779H57.2342C56.7242 151.951 55.7041 152.853 53.7839 152.853C51.3838 152.853 49.9736 151.08 49.8236 148.736H61.1645V147.744C61.1645 143.207 58.5843 139.66 53.6339 139.66ZM57.2342 145.881H49.9436C50.3037 143.988 51.6238 142.575 53.6339 142.575C55.6741 142.575 56.9642 143.928 57.2342 145.881ZM62.3216 151.11C62.3216 148.045 64.4517 146.452 68.502 146.152L72.2823 145.851V145.28C72.2823 143.717 71.4123 142.726 69.6121 142.726C67.962 142.726 66.9419 143.657 66.7619 144.859H62.8616C63.3416 141.764 65.9218 139.66 69.6121 139.66C74.0225 139.66 76.3626 142.004 76.3626 145.551V155.862H72.4023V153.514C71.8023 154.866 70.0922 156.008 67.752 156.008C64.4517 156.008 62.3216 154.085 62.3216 151.11ZM66.2819 150.99C66.2819 152.312 67.212 153.214 68.8621 153.214C70.9622 153.214 72.2823 151.891 72.2823 149.638V148.586L69.3121 148.826C67.452 148.976 66.2819 149.517 66.2819 150.99ZM90.7049 149.575V140.021H94.7682V149.236C94.7682 151.268 95.4454 152.283 97.6463 152.283C99.5086 152.283 100.524 151.37 100.524 149.236V140.021H104.588V155.868H100.524V153.638C99.8344 155.261 98.6021 155.839 96.2919 155.839C92.6016 155.839 90.7049 153.421 90.7049 149.575ZM110.468 140.021H106.508V155.868H110.618V146.602C110.618 144.469 111.639 143.267 113.469 143.267C115.329 143.267 116.199 144.529 116.199 146.512V155.868H120.309V146.602C120.309 144.469 121.329 143.267 123.159 143.267C124.99 143.267 125.89 144.529 125.89 146.512V155.868H130V145.881C130 142.125 128.17 139.66 124.51 139.66C121.989 139.66 120.489 140.772 119.589 142.395C118.809 140.712 117.309 139.66 114.909 139.66C112.539 139.66 111.159 140.802 110.468 142.485V140.021Z" fill="#FDFDFD"/>
  <path d="M82.6489 134.799H78.4143V155.862H82.6489V134.799Z" fill="#FDFDFD"/>
  <path d="M84.7424 139.961H86.7145H88.6866V155.946H84.7424V139.961Z" fill="#FDFDFD"/>
  <path d="M86.7142 128.467L87.3013 133.872C87.4276 135.035 88.3459 135.954 89.5088 136.08L94.914 136.667L89.5088 137.254C88.3459 137.38 87.4276 138.299 87.3013 139.462L86.7142 144.867L86.1271 139.462C86.0008 138.299 85.0824 137.38 83.9196 137.254L78.5144 136.667L83.9196 136.08C85.0824 135.954 86.0008 135.035 86.1271 133.872L86.7142 128.467Z" fill="#FDFDFD"/>
  <path fill-rule="evenodd" clip-rule="evenodd" d="M18.2485 147.829C18.2485 152.367 21.5488 156.003 26.2591 156.003C30.9695 156.003 34.2697 152.367 34.2697 147.829C34.2697 143.291 30.9695 139.655 26.2591 139.655C21.5488 139.655 18.2485 143.291 18.2485 147.829ZM30.2194 147.829C30.2194 150.203 28.7793 152.607 26.2591 152.607C23.7389 152.607 22.2988 150.203 22.2988 147.829C22.2988 145.455 23.7389 143.081 26.2591 143.081C28.7793 143.081 30.2194 145.455 30.2194 147.829Z" fill="#FDFDFD"/>
  </svg>
  