<svg width="24" height="24" viewBox="0 0 24 24" fill="none" xmlns="http://www.w3.org/2000/svg">
  <rect x="1" y="1" width="22" height="22" rx="3" fill="#E9E4FA" stroke="#471ADF" stroke-width="2"/>
  <mask id="path-2-inside-1_592_7931" fill="white">
  <path fill-rule="evenodd" clip-rule="evenodd" d="M12.5669 23V20.1826C12.6855 20.208 12.8065 20.2224 12.9285 20.2304C12.9651 20.2333 13.002 20.2352 13.0388 20.2365C13.0471 20.2368 13.0554 20.2374 13.0637 20.2381C13.0741 20.2389 13.0845 20.2397 13.0949 20.2397C13.1009 20.2397 13.1068 20.2393 13.1126 20.2388C13.1176 20.2384 13.1225 20.238 13.1275 20.2379C13.2207 20.2379 13.3144 20.2347 13.4095 20.2243C14.5774 20.0974 15.521 19.1586 15.6532 17.9921C15.7352 17.2689 15.506 16.5446 15.0245 16.0053C14.563 15.4888 13.9105 15.186 13.2223 15.1603C13.2141 15.1599 13.2059 15.1594 13.1977 15.1588C13.1813 15.1578 13.165 15.1567 13.1486 15.1563C13.1451 15.1563 13.1417 15.1561 13.1383 15.1558C13.1349 15.1555 13.1315 15.1553 13.128 15.1553C13.122 15.1553 13.1161 15.1557 13.1103 15.1562C13.1044 15.1567 13.0985 15.1571 13.0925 15.1571C12.9138 15.1571 12.7384 15.1753 12.5669 15.2119V12.5508H16.0706H16.0733C16.3756 12.5449 16.6101 12.3126 16.6101 12.0167C16.6101 11.9894 16.6069 11.963 16.6029 11.9368C16.601 11.8372 16.573 11.7384 16.5158 11.6524C16.3705 11.4328 16.2917 11.1783 16.2805 10.9137C16.2806 10.9041 16.2806 10.8945 16.2806 10.8849C16.2805 10.8419 16.2805 10.7987 16.2853 10.755C16.3585 10.0799 16.9012 9.53397 17.5758 9.45759C18.4286 9.36144 19.1587 9.99573 19.2183 10.8146C19.2258 11.1156 19.1494 11.4035 18.9843 11.6524C18.921 11.748 18.8954 11.8588 18.8999 11.9694C18.8909 12.0717 18.9085 12.1758 18.9587 12.2696C19.0519 12.4429 19.2324 12.5511 19.4293 12.5511H23V11.4131H20.2412C20.2671 11.2817 20.282 11.1481 20.2871 11.0127L20.2887 10.9831C20.2889 10.9738 20.2897 10.9646 20.2904 10.9553C20.2913 10.944 20.2922 10.9327 20.2922 10.9214C20.2922 10.9109 20.2909 10.9009 20.2903 10.8905C20.2902 10.8882 20.2901 10.8858 20.29 10.8835C20.2911 10.7799 20.2882 10.6754 20.277 10.5702C20.1501 9.4023 19.2113 8.45874 18.0445 8.32654C16.5105 8.15188 15.2077 9.35316 15.2077 10.852C15.2077 10.8578 15.2085 10.8634 15.2088 10.8693C15.2048 11.0541 15.2219 11.2357 15.2568 11.4131H12.5669V7.94597C12.5669 7.7494 12.4587 7.56833 12.2854 7.47539C12.1954 7.42732 12.0958 7.40809 11.9975 7.4145C11.8952 7.41503 11.7932 7.44227 11.7045 7.50076C11.5288 7.61747 11.3309 7.69279 11.1229 7.72377L11.1119 7.72537C11.0679 7.73169 11.0231 7.73358 10.9781 7.73548C10.9737 7.73567 10.9692 7.73586 10.9648 7.73605L10.959 7.73615C10.8968 7.73719 10.8343 7.73824 10.7709 7.73124C10.0957 7.65807 9.55008 7.11538 9.47343 6.44076C9.42482 6.01318 9.55435 5.60323 9.83772 5.28595C10.0856 5.0082 10.4285 4.8362 10.7946 4.80015C10.8574 4.79561 10.9199 4.7924 10.9813 4.79561C10.9879 4.79576 10.9944 4.79632 11.0008 4.79689C11.0059 4.79733 11.011 4.79778 11.016 4.79801C11.2639 4.81671 11.4986 4.89549 11.7045 5.03196C11.7932 5.09072 11.8952 5.11796 11.9975 5.11823C12.0958 5.12464 12.1954 5.10541 12.2854 5.05707C12.4587 4.96413 12.5669 4.78332 12.5669 4.58649V1H11.4655V3.78128C11.348 3.75617 11.2281 3.74175 11.1068 3.73374C11.0681 3.73053 11.0291 3.72866 10.9899 3.72733C10.9815 3.7272 10.9732 3.72653 10.9649 3.72587C10.9557 3.72513 10.9465 3.72439 10.9372 3.72439C10.932 3.72439 10.927 3.72479 10.9219 3.72519C10.9168 3.72559 10.9117 3.72599 10.9065 3.72599C10.8128 3.72599 10.7182 3.7292 10.6224 3.73961C9.45447 3.86647 8.51091 4.80522 8.37871 5.97179C8.29672 6.69501 8.52587 7.41931 9.00739 7.95852C9.46729 8.47343 10.1173 8.77575 10.8032 8.80326C10.8132 8.80375 10.8232 8.80438 10.8333 8.80501C10.8508 8.8061 10.8684 8.8072 10.8857 8.80754C10.8888 8.80754 10.8918 8.8078 10.8949 8.80807C10.898 8.80834 10.9011 8.8086 10.9041 8.8086C10.9098 8.8086 10.9155 8.80813 10.9212 8.80765C10.9259 8.80725 10.9306 8.80686 10.9354 8.80674C11.1156 8.807 11.2924 8.78884 11.4652 8.75199V11.4131H7.96181C7.76498 11.4131 7.58418 11.5212 7.49124 11.6946C7.44103 11.7883 7.42313 11.8925 7.43248 11.9945C7.42794 12.1051 7.45331 12.2162 7.51688 12.3118C7.66083 12.5292 7.73935 12.7807 7.75163 13.0427C7.75163 13.0525 7.75168 13.0622 7.75174 13.072C7.75197 13.1158 7.75221 13.1595 7.74762 13.204L7.74682 13.2126C7.67204 13.8861 7.13042 14.4302 6.45714 14.5063C5.99618 14.5586 5.55978 14.4032 5.24064 14.0838C4.97276 13.8156 4.82427 13.462 4.81332 13.0857C4.81813 12.808 4.89531 12.543 5.04888 12.3118C5.11217 12.2162 5.13781 12.1053 5.13327 11.9948C5.14235 11.8925 5.12473 11.7883 5.07452 11.6946C4.98131 11.5212 4.80077 11.4131 4.60394 11.4131H1V12.5508H3.79125C3.76534 12.6822 3.75038 12.8157 3.74531 12.9511L3.74371 12.9808C3.74347 12.99 3.74274 12.9993 3.74201 13.0085C3.74112 13.0198 3.74023 13.0312 3.74023 13.0425C3.74023 13.0499 3.74078 13.0572 3.74132 13.0646C3.74178 13.0709 3.74225 13.0772 3.74237 13.0836C3.7413 13.1862 3.74424 13.2895 3.75572 13.3937C3.88258 14.5616 4.82134 15.5051 5.98817 15.6373C6.08752 15.6485 6.18553 15.6541 6.28274 15.6541C6.9619 15.6541 7.60074 15.3892 8.08093 14.9085C8.56085 14.428 8.82499 13.79 8.82499 13.1122C8.82499 13.1087 8.8247 13.1053 8.82441 13.1018C8.82422 13.0995 8.82402 13.0972 8.82392 13.0948C8.82792 12.91 8.81083 12.7284 8.77584 12.5511H11.4655V16.0182C11.4655 16.2147 11.5737 16.3958 11.747 16.4887C11.8367 16.5368 11.9364 16.556 12.0344 16.5496C12.1372 16.5494 12.2395 16.5221 12.3281 16.4631C12.5028 16.3472 12.6996 16.2724 12.9061 16.2409C12.9096 16.2404 12.9131 16.2398 12.9167 16.2393C12.9191 16.2389 12.9215 16.2386 12.924 16.2382C12.9706 16.2318 13.0183 16.23 13.0657 16.2281C13.1306 16.2268 13.1956 16.2257 13.2618 16.2326C13.937 16.3058 14.4826 16.8485 14.5592 17.5231C14.6079 17.9507 14.4783 18.3606 14.195 18.6779C13.9474 18.9551 13.6053 19.1271 13.2399 19.1635C13.1758 19.168 13.1117 19.1712 13.049 19.1677C13.0433 19.1676 13.0377 19.1671 13.032 19.1666C13.0278 19.1662 13.0236 19.1658 13.0193 19.1656C12.7704 19.1474 12.5349 19.0684 12.3281 18.9316C12.2395 18.8729 12.1377 18.8456 12.0354 18.8454C11.9372 18.8387 11.8373 18.8579 11.7473 18.9065C11.5739 18.9995 11.4658 19.1803 11.4658 19.3771V23H12.5669Z"/>
  </mask>
  <path fill-rule="evenodd" clip-rule="evenodd" d="M12.5669 23V20.1826C12.6855 20.208 12.8065 20.2224 12.9285 20.2304C12.9651 20.2333 13.002 20.2352 13.0388 20.2365C13.0471 20.2368 13.0554 20.2374 13.0637 20.2381C13.0741 20.2389 13.0845 20.2397 13.0949 20.2397C13.1009 20.2397 13.1068 20.2393 13.1126 20.2388C13.1176 20.2384 13.1225 20.238 13.1275 20.2379C13.2207 20.2379 13.3144 20.2347 13.4095 20.2243C14.5774 20.0974 15.521 19.1586 15.6532 17.9921C15.7352 17.2689 15.506 16.5446 15.0245 16.0053C14.563 15.4888 13.9105 15.186 13.2223 15.1603C13.2141 15.1599 13.2059 15.1594 13.1977 15.1588C13.1813 15.1578 13.165 15.1567 13.1486 15.1563C13.1451 15.1563 13.1417 15.1561 13.1383 15.1558C13.1349 15.1555 13.1315 15.1553 13.128 15.1553C13.122 15.1553 13.1161 15.1557 13.1103 15.1562C13.1044 15.1567 13.0985 15.1571 13.0925 15.1571C12.9138 15.1571 12.7384 15.1753 12.5669 15.2119V12.5508H16.0706H16.0733C16.3756 12.5449 16.6101 12.3126 16.6101 12.0167C16.6101 11.9894 16.6069 11.963 16.6029 11.9368C16.601 11.8372 16.573 11.7384 16.5158 11.6524C16.3705 11.4328 16.2917 11.1783 16.2805 10.9137C16.2806 10.9041 16.2806 10.8945 16.2806 10.8849C16.2805 10.8419 16.2805 10.7987 16.2853 10.755C16.3585 10.0799 16.9012 9.53397 17.5758 9.45759C18.4286 9.36144 19.1587 9.99573 19.2183 10.8146C19.2258 11.1156 19.1494 11.4035 18.9843 11.6524C18.921 11.748 18.8954 11.8588 18.8999 11.9694C18.8909 12.0717 18.9085 12.1758 18.9587 12.2696C19.0519 12.4429 19.2324 12.5511 19.4293 12.5511H23V11.4131H20.2412C20.2671 11.2817 20.282 11.1481 20.2871 11.0127L20.2887 10.9831C20.2889 10.9738 20.2897 10.9646 20.2904 10.9553C20.2913 10.944 20.2922 10.9327 20.2922 10.9214C20.2922 10.9109 20.2909 10.9009 20.2903 10.8905C20.2902 10.8882 20.2901 10.8858 20.29 10.8835C20.2911 10.7799 20.2882 10.6754 20.277 10.5702C20.1501 9.4023 19.2113 8.45874 18.0445 8.32654C16.5105 8.15188 15.2077 9.35316 15.2077 10.852C15.2077 10.8578 15.2085 10.8634 15.2088 10.8693C15.2048 11.0541 15.2219 11.2357 15.2568 11.4131H12.5669V7.94597C12.5669 7.7494 12.4587 7.56833 12.2854 7.47539C12.1954 7.42732 12.0958 7.40809 11.9975 7.4145C11.8952 7.41503 11.7932 7.44227 11.7045 7.50076C11.5288 7.61747 11.3309 7.69279 11.1229 7.72377L11.1119 7.72537C11.0679 7.73169 11.0231 7.73358 10.9781 7.73548C10.9737 7.73567 10.9692 7.73586 10.9648 7.73605L10.959 7.73615C10.8968 7.73719 10.8343 7.73824 10.7709 7.73124C10.0957 7.65807 9.55008 7.11538 9.47343 6.44076C9.42482 6.01318 9.55435 5.60323 9.83772 5.28595C10.0856 5.0082 10.4285 4.8362 10.7946 4.80015C10.8574 4.79561 10.9199 4.7924 10.9813 4.79561C10.9879 4.79576 10.9944 4.79632 11.0008 4.79689C11.0059 4.79733 11.011 4.79778 11.016 4.79801C11.2639 4.81671 11.4986 4.89549 11.7045 5.03196C11.7932 5.09072 11.8952 5.11796 11.9975 5.11823C12.0958 5.12464 12.1954 5.10541 12.2854 5.05707C12.4587 4.96413 12.5669 4.78332 12.5669 4.58649V1H11.4655V3.78128C11.348 3.75617 11.2281 3.74175 11.1068 3.73374C11.0681 3.73053 11.0291 3.72866 10.9899 3.72733C10.9815 3.7272 10.9732 3.72653 10.9649 3.72587C10.9557 3.72513 10.9465 3.72439 10.9372 3.72439C10.932 3.72439 10.927 3.72479 10.9219 3.72519C10.9168 3.72559 10.9117 3.72599 10.9065 3.72599C10.8128 3.72599 10.7182 3.7292 10.6224 3.73961C9.45447 3.86647 8.51091 4.80522 8.37871 5.97179C8.29672 6.69501 8.52587 7.41931 9.00739 7.95852C9.46729 8.47343 10.1173 8.77575 10.8032 8.80326C10.8132 8.80375 10.8232 8.80438 10.8333 8.80501C10.8508 8.8061 10.8684 8.8072 10.8857 8.80754C10.8888 8.80754 10.8918 8.8078 10.8949 8.80807C10.898 8.80834 10.9011 8.8086 10.9041 8.8086C10.9098 8.8086 10.9155 8.80813 10.9212 8.80765C10.9259 8.80725 10.9306 8.80686 10.9354 8.80674C11.1156 8.807 11.2924 8.78884 11.4652 8.75199V11.4131H7.96181C7.76498 11.4131 7.58418 11.5212 7.49124 11.6946C7.44103 11.7883 7.42313 11.8925 7.43248 11.9945C7.42794 12.1051 7.45331 12.2162 7.51688 12.3118C7.66083 12.5292 7.73935 12.7807 7.75163 13.0427C7.75163 13.0525 7.75168 13.0622 7.75174 13.072C7.75197 13.1158 7.75221 13.1595 7.74762 13.204L7.74682 13.2126C7.67204 13.8861 7.13042 14.4302 6.45714 14.5063C5.99618 14.5586 5.55978 14.4032 5.24064 14.0838C4.97276 13.8156 4.82427 13.462 4.81332 13.0857C4.81813 12.808 4.89531 12.543 5.04888 12.3118C5.11217 12.2162 5.13781 12.1053 5.13327 11.9948C5.14235 11.8925 5.12473 11.7883 5.07452 11.6946C4.98131 11.5212 4.80077 11.4131 4.60394 11.4131H1V12.5508H3.79125C3.76534 12.6822 3.75038 12.8157 3.74531 12.9511L3.74371 12.9808C3.74347 12.99 3.74274 12.9993 3.74201 13.0085C3.74112 13.0198 3.74023 13.0312 3.74023 13.0425C3.74023 13.0499 3.74078 13.0572 3.74132 13.0646C3.74178 13.0709 3.74225 13.0772 3.74237 13.0836C3.7413 13.1862 3.74424 13.2895 3.75572 13.3937C3.88258 14.5616 4.82134 15.5051 5.98817 15.6373C6.08752 15.6485 6.18553 15.6541 6.28274 15.6541C6.9619 15.6541 7.60074 15.3892 8.08093 14.9085C8.56085 14.428 8.82499 13.79 8.82499 13.1122C8.82499 13.1087 8.8247 13.1053 8.82441 13.1018C8.82422 13.0995 8.82402 13.0972 8.82392 13.0948C8.82792 12.91 8.81083 12.7284 8.77584 12.5511H11.4655V16.0182C11.4655 16.2147 11.5737 16.3958 11.747 16.4887C11.8367 16.5368 11.9364 16.556 12.0344 16.5496C12.1372 16.5494 12.2395 16.5221 12.3281 16.4631C12.5028 16.3472 12.6996 16.2724 12.9061 16.2409C12.9096 16.2404 12.9131 16.2398 12.9167 16.2393C12.9191 16.2389 12.9215 16.2386 12.924 16.2382C12.9706 16.2318 13.0183 16.23 13.0657 16.2281C13.1306 16.2268 13.1956 16.2257 13.2618 16.2326C13.937 16.3058 14.4826 16.8485 14.5592 17.5231C14.6079 17.9507 14.4783 18.3606 14.195 18.6779C13.9474 18.9551 13.6053 19.1271 13.2399 19.1635C13.1758 19.168 13.1117 19.1712 13.049 19.1677C13.0433 19.1676 13.0377 19.1671 13.032 19.1666C13.0278 19.1662 13.0236 19.1658 13.0193 19.1656C12.7704 19.1474 12.5349 19.0684 12.3281 18.9316C12.2395 18.8729 12.1377 18.8456 12.0354 18.8454C11.9372 18.8387 11.8373 18.8579 11.7473 18.9065C11.5739 18.9995 11.4658 19.1803 11.4658 19.3771V23H12.5669Z" fill="black" stroke="#471ADF" stroke-width="2" mask="url(#path-2-inside-1_592_7931)"/>
</svg>
  