<svg width="24" height="24" viewBox="0 0 24 24" fill="none" xmlns="http://www.w3.org/2000/svg">
  <rect x="1" y="1" width="22" height="22" rx="3" fill="#D0FBF0" stroke="#04BF93" stroke-width="2"/>
  <path d="M12 8.0002V6.0001H8.5V4H6.5002V6.0001H4V8.0002H8.0002C8.0002 10.2091 6.2089 12.0001 4 12.0001V14.0002C5.5519 14.0002 6.961 13.4065 8.0254 12.4396L9.586 14.0002L11.0002 12.586L9.2755 10.8604C9.7375 10.0108 10 9.0361 10 8.0002H12Z" fill="#04BF93"/>
  <path d="M10.252 20.0002L14 10H16.08L20 20.0002H17.48L16.808 18.0542H13.444L12.772 20.0002H10.252ZM14.172 15.9682H16.08L15 13L14.172 15.9682Z" fill="#04BF93"/>
</svg>
  